<svg id="Layer_1" enable-background="new 0 0 512 512" height="512" viewBox="0 0 512 512" width="512" xmlns="http://www.w3.org/2000/svg"><g><g><g><g><ellipse cx="454.204" cy="132.395" fill="#bee49d" rx="50.296" ry="124.895"/><path d="m454.204 7.5c-5.224 0-10.262 1.979-15 5.65 20.451 15.847 35.296 63.241 35.296 119.245s-14.845 103.398-35.296 119.245c4.738 3.671 9.776 5.65 15 5.65 27.778 0 50.296-55.917 50.296-124.895s-22.518-124.895-50.296-124.895z" fill="#a3d8a4"/></g><g><ellipse cx="57.796" cy="177.395" fill="#bee49d" rx="50.296" ry="124.895"/><path d="m57.796 52.5c-5.224 0-10.263 1.979-15 5.65 20.451 15.847 35.296 63.241 35.296 119.245s-14.844 103.398-35.296 119.245c4.737 3.671 9.776 5.65 15 5.65 27.778 0 50.296-55.917 50.296-124.895s-22.518-124.895-50.296-124.895z" fill="#a3d8a4"/></g><g><path d="m22.245 360.255h227v31.49h-227z" fill="#ecf5ff" transform="matrix(0 -1 1 0 -240.255 511.745)"/><path d="m270.255 367.755h212v31.49h-212z" fill="#ecf5ff" transform="matrix(0 -1 1 0 -7.245 759.755)"/><path d="m120 360.973h31.49v56.49h-31.49z" fill="#dceafc"/><path d="m360.51 360.973h31.49v56.49h-31.49z" fill="#dceafc"/><path d="m412 387.463h-312c-5.523 0-10-4.477-10-10v-36.49c0-5.523 4.477-10 10-10h312c5.523 0 10 4.477 10 10v36.49c0 5.522-4.477 10-10 10z" fill="#ce9775"/><path d="m412 330.973h-30c5.523 0 10 4.477 10 10v36.49c0 5.523-4.477 10-10 10h30c5.523 0 10-4.477 10-10v-36.49c0-5.523-4.477-10-10-10z" fill="#c6855b"/><path d="m360.51 277.5h31.49v38.473h-31.49z" fill="#dceafc"/><path d="m120 262.5h31.49v53.473h-31.49z" fill="#dceafc"/><path d="m400 285.973h-288c-12.15 0-22-9.85-22-22v-47.49c0-12.15 9.85-22 22-22h288c12.15 0 22 9.85 22 22v47.49c0 12.15-9.85 22-22 22z" fill="#ce9775"/><path d="m400 194.483h-30c12.15 0 22 9.85 22 22v47.49c0 12.15-9.85 22-22 22h30c12.15 0 22-9.85 22-22v-47.49c0-12.151-9.85-22-22-22z" fill="#c6855b"/></g><path d="m17.5 474.437h477c5.523 0 10 4.487 10 10.021v10.021c0 5.534-4.477 10.021-10 10.021h-477c-5.523 0-10-4.487-10-10.021v-10.021c0-5.534 4.477-10.021 10-10.021z" fill="#bee49d"/><path d="m494.5 474.437h-30c5.523 0 10 4.487 10 10.021v10.021c0 5.534-4.477 10.021-10 10.021h30c5.523 0 10-4.487 10-10.021v-10.021c0-5.534-4.477-10.021-10-10.021z" fill="#a3d8a4"/></g></g><path d="m274.555 98.791c2.778-.106 8.177.271 13.152 4.029 2.053 1.55 3.776 3.486 5.122 5.754 1.706 2.873 4.836 4.657 8.17 4.657s6.465-1.785 8.171-4.658c1.345-2.267 3.068-4.203 5.121-5.753 4.976-3.759 10.377-4.132 13.152-4.029 4.122.169 7.625-3.063 7.787-7.201.162-4.139-3.062-7.625-7.201-7.787-4.776-.192-14.083.48-22.779 7.048-1.525 1.152-2.944 2.421-4.251 3.799-1.308-1.378-2.727-2.647-4.251-3.799-8.695-6.569-18.01-7.24-22.779-7.048-4.139.162-7.363 3.648-7.201 7.787.161 4.139 3.649 7.358 7.787 7.201zm219.945 368.146h-32.796v-203.16c13.693-3.729 25.932-17.696 35.021-40.266 9.85-24.459 15.274-56.818 15.274-91.116s-5.424-66.657-15.274-91.116c-10.719-26.619-25.82-41.279-42.521-41.279s-31.802 14.66-42.522 41.279c-9.85 24.459-15.274 56.818-15.274 91.116 0 19.163 1.697 37.717 4.909 54.63-.642.036-284.967-.04-285.874-.045.096-3.2.147-6.402.147-9.58 0-34.298-5.424-66.658-15.274-91.119-10.719-26.62-25.818-41.281-42.516-41.281-16.517 0-31.503 14.374-42.197 40.475-1.57 3.833.264 8.213 4.096 9.784 3.834 1.571 8.213-.263 9.784-4.096 8.114-19.805 18.435-31.163 28.317-31.163 20.239 0 42.79 48.214 42.79 117.4 0 3.974-.083 7.986-.24 11.983-10.488 4.526-17.85 14.967-17.85 27.097v47.49c0 2.145.236 4.234.673 6.25-5.41 11.167-11.627 18.902-17.877 22.419v-125.349c0-4.142-3.358-7.5-7.5-7.5s-7.5 3.358-7.5 7.5v125.372c-17.931-10.013-35.296-54.564-35.296-115.262 0-18.957 1.702-37.096 5.058-53.913.811-4.062-1.825-8.012-5.887-8.823-4.062-.81-8.012 1.826-8.823 5.887-3.549 17.782-5.348 36.908-5.348 56.849 0 34.295 5.425 66.652 15.275 91.111 9.089 22.568 21.328 36.535 35.021 40.265v158.161h-32.796c-9.649 0-17.5 7.86-17.5 17.521v10.021c0 9.661 7.851 17.521 17.5 17.521h477c9.649 0 17.5-7.86 17.5-17.521v-10.021c0-9.661-7.851-17.521-17.5-17.521zm-40.296-451.937c20.242 0 42.796 48.212 42.796 117.395 0 60.705-17.365 105.259-35.296 115.269v-125.374c0-4.142-3.358-7.5-7.5-7.5s-7.5 3.358-7.5 7.5v125.374c-28.569-15.967-35.296-82.108-35.296-115.269 0-69.183 22.554-117.395 42.796-117.395zm-124.639 364.962c-4.142 0-7.5 3.358-7.5 7.5s3.358 7.5 7.5 7.5h23.445v71.975h-194.02v-71.975h135.575c4.142 0 7.5-3.358 7.5-7.5s-3.358-7.5-7.5-7.5h-194.565c-1.378 0-2.5-1.122-2.5-2.5v-36.49c0-1.378 1.122-2.5 2.5-2.5h312c1.378 0 2.5 1.122 2.5 2.5v36.49c0 1.378-1.122 2.5-2.5 2.5-9.908 0-82.435 0-82.435 0zm54.935 15v71.975h-16.49v-71.975zm-240.51 0v71.975h-16.49v-71.975zm-16.49-71.489v-30.003h16.49v30.002h-16.49zm31.49 0v-30.003h194.02v30.002h-194.02zm209.02 0v-30.003h16.49v30.002h-16.49zm31.49 71.489h12.5c9.649 0 17.5-7.851 17.5-17.5v-36.49c0-9.649-7.851-17.5-17.5-17.5h-12.5v-30.002h.5c16.266 0 29.5-13.234 29.5-29.5v-11.049c5.351 5.534 11.134 9.203 17.204 10.856v203.16h-47.204zm-302-178.482c0-7.995 6.505-14.5 14.5-14.5 4.622 0 288.756-.837 292.898.851 1.951 7.357 4.213 14.293 6.785 20.679.908 2.255 1.849 4.419 2.818 6.501v33.959c0 7.995-6.505 14.5-14.5 14.5h-288.001c-7.995 0-14.5-6.505-14.5-14.5zm-32.204 92.284c9.789-2.69 18.893-10.669 26.59-23.242 5.488 5.127 12.627 8.014 20.614 7.949v30.002h-12.5c-9.649 0-17.5 7.851-17.5 17.5v36.49c0 9.649 7.851 17.5 17.5 17.5h12.5v71.975h-47.204zm431.704 185.715c0 1.39-1.122 2.521-2.5 2.521h-477c-1.378 0-2.5-1.131-2.5-2.521v-10.021c0-1.39 1.122-2.521 2.5-2.521h102.442c.02 0 .039.003.058.003h31.49c.02 0 .038-.003.058-.003h342.952c1.378 0 2.5 1.131 2.5 2.521zm-312.445-440.688c2.774-.106 8.177.271 13.152 4.029 2.053 1.55 3.776 3.486 5.122 5.754 1.706 2.873 4.836 4.657 8.17 4.657s6.465-1.785 8.171-4.658c1.345-2.267 3.068-4.203 5.121-5.753 4.977-3.759 10.375-4.13 13.152-4.029 4.135.165 7.625-3.062 7.787-7.201s-3.062-7.625-7.201-7.787c-4.773-.194-14.083.48-22.779 7.048-1.525 1.152-2.944 2.421-4.251 3.799-1.308-1.378-2.727-2.647-4.251-3.799-8.695-6.568-18.009-7.243-22.779-7.048-4.139.162-7.363 3.648-7.201 7.787s3.651 7.349 7.787 7.201z"/></g></svg>